<?xml version="1.0" encoding="UTF-8" standalone="no"?>
<!DOCTYPE svg PUBLIC "-//W3C//DTD SVG 1.1//EN" "http://www.w3.org/Graphics/SVG/1.1/DTD/svg11.dtd">
<svg width="100%" height="100%" viewBox="0 0 1000 1000" version="1.1" xmlns="http://www.w3.org/2000/svg" xmlns:xlink="http://www.w3.org/1999/xlink" xml:space="preserve" xmlns:serif="http://www.serif.com/" style="fill-rule:evenodd;clip-rule:evenodd;stroke-linejoin:round;stroke-miterlimit:2;">
    <g transform="matrix(3.246833,0,0,3.246833,170.691472,34.992178)">
        <path d="M113.473,3.981C220.018,22.036 202.531,138.064 189.569,142.666C178.268,146.677 180.784,126.114 180.979,124.519C181.694,118.678 190.568,72.834 154.192,40.863C130.124,19.71 79.345,7.635 41.847,48.797C31.245,60.435 15.162,92.324 23.247,121.571C32.427,154.779 48.828,160.095 61.897,200.394C62.579,202.496 63.501,202.171 120.499,202.203C126.577,202.206 134.261,202.925 134.978,200.652C144.956,169.047 163.413,155.23 148.09,135.802C147.783,135.413 143.232,129.642 143.043,132.223C138.961,187.9 47.444,181.223 57.344,132.461C65.365,92.953 124.415,103.496 125.275,102.319C126.367,100.826 122.946,82.488 106.562,80.145C86.81,77.32 76.82,90.086 75.162,92.205C74.179,93.462 71.121,91.247 70.83,91.037C65.486,87.166 65.421,87.48 59.867,84.046C55.888,81.587 81.166,52.821 116.552,63.351C147.507,72.562 142.706,107.69 146.574,110.385C198.235,146.375 157.8,176.165 151.818,208.561C149.209,222.69 142.751,220.521 104.5,220.48C56.363,220.43 49.365,222.076 46.404,212.541C41.798,197.711 44.587,196.355 23.921,165.22C6.372,138.78 5.388,123.944 4.026,115.518C0.634,84.717 12.447,15.294 92.487,4.025C102.965,3.126 102.869,3.26 113.473,3.981ZM114.494,119.961C108.13,119.919 88.854,118.346 78.749,128.728C71.359,136.321 77.12,145.025 77.893,146.192C81.522,151.675 118.244,166.473 124.776,127.552C126.097,119.679 122.382,120.952 114.494,119.961Z" style="fill:white;"/>
        <path d="M57.501,251.931C41.135,251.136 42.733,233.888 57.5,233.715C64.385,233.634 139.863,232.748 143.569,234.316C151.646,237.734 151.734,247.49 144.642,250.81C140.823,252.597 133.761,251.626 57.501,251.931Z" style="fill:white;"/>
        <path d="M75.549,282.346C66.092,278.03 64.903,265.175 80.502,264.734C122.432,263.547 123.804,264.991 126.334,267.655C135.057,276.838 121.672,282.528 120.46,283.043C113.02,282.337 80.724,283.699 75.549,282.346Z" style="fill:white;"/>
    </g>
</svg>
